<svg width="18" height="18" viewBox="0 0 18 18" fill="none" xmlns="http://www.w3.org/2000/svg">
<path d="M14.913 3.08738C16.953 5.09782 17.7217 7.90651 17.2388 10.528C17.6428 11.2375 17.8695 12.0654 17.8695 12.9425C17.8695 14.2493 17.3504 15.5027 16.4263 16.4267C15.5022 17.3508 14.2488 17.87 12.942 17.87C12.0649 17.87 11.237 17.6433 10.5275 17.2393C7.90602 17.7222 5.09733 16.9535 3.08689 14.9135C1.04689 12.903 0.278197 10.0943 0.761096 7.47289C0.357038 6.76332 0.130371 5.9355 0.130371 5.0584C0.130371 3.75153 0.649521 2.49819 1.57361 1.5741C2.49771 0.650009 3.75104 0.130859 5.05791 0.130859C5.93501 0.130859 6.76284 0.357526 7.4724 0.761584C10.0939 0.278686 12.9025 1.04738 14.913 3.08738ZM9.03936 14.0856C11.8678 14.0856 13.277 12.7256 13.277 10.8926C13.277 9.71985 12.7252 8.46825 10.5866 7.98535L8.62544 7.55173C7.87646 7.38419 7.02892 7.15753 7.02892 6.45782C7.02892 5.74825 7.62023 5.2555 8.70428 5.2555C10.902 5.2555 10.695 6.76332 11.7889 6.76332C12.3605 6.76332 12.8533 6.42825 12.8533 5.8468C12.8533 4.49666 10.695 3.48158 8.86197 3.48158C6.8811 3.48158 4.76226 4.32912 4.76226 6.57608C4.76226 7.66014 5.1466 8.81318 7.2753 9.34535L9.92631 10.0155C10.7246 10.2126 10.9217 10.6561 10.9217 11.07C10.9217 11.7401 10.2515 12.4004 9.03936 12.4004C6.66428 12.4004 6.9895 10.5772 5.7182 10.5772C5.1466 10.5772 4.73269 10.9714 4.73269 11.5332C4.73269 12.6271 6.04342 14.0856 9.03936 14.0856Z" fill="white"/>
</svg>
