<svg width="28" height="28" viewBox="0 0 28 28" fill="none" xmlns="http://www.w3.org/2000/svg">
<path fill-rule="evenodd" clip-rule="evenodd" d="M25.4495 7.948C25.6155 7.402 25.4495 7 24.6545 7H22.0296C21.3616 7 21.0536 7.347 20.8866 7.73C20.8866 7.73 19.5516 10.926 17.6607 13.002C17.0487 13.604 16.7707 13.795 16.4367 13.795C16.2697 13.795 16.0187 13.604 16.0187 13.057V7.948C16.0187 7.292 15.8347 7 15.2787 7H11.1508C10.7338 7 10.4828 7.304 10.4828 7.593C10.4828 8.214 11.4288 8.358 11.5258 10.106V13.904C11.5258 14.737 11.3728 14.888 11.0388 14.888C10.1488 14.888 7.98387 11.677 6.6989 8.003C6.44991 7.288 6.19791 7 5.52693 7H2.89998C2.15 7 2 7.347 2 7.73C2 8.412 2.88998 11.8 6.14491 16.281C8.31487 19.341 11.3698 21 14.1527 21C15.8217 21 16.0277 20.632 16.0277 19.997V17.684C16.0277 16.947 16.1857 16.8 16.7147 16.8C17.1047 16.8 17.7717 16.992 19.3296 18.467C21.1096 20.216 21.4026 21 22.4046 21H25.0295C25.7795 21 26.1555 20.632 25.9395 19.904C25.7015 19.18 24.8515 18.129 23.7245 16.882C23.1126 16.172 22.1946 15.407 21.9156 15.024C21.5266 14.533 21.6376 14.314 21.9156 13.877C21.9156 13.877 25.1155 9.451 25.4485 7.948" fill="white"/>
</svg>
