<svg width="18" height="18" viewBox="0 0 18 18" fill="none" xmlns="http://www.w3.org/2000/svg">
<path d="M8.99994 0.130859C13.8986 0.130859 17.8695 4.10176 17.8695 9.00042C17.8695 13.8991 13.8986 17.87 8.99994 17.87C7.4325 17.8725 5.89263 17.4577 4.53855 16.6682L0.133931 17.87L1.3331 13.4636C0.542901 12.1091 0.127765 10.5686 0.130383 9.00042C0.130383 4.10176 4.10129 0.130859 8.99994 0.130859ZM5.9772 4.83173L5.79981 4.83882C5.68496 4.84582 5.57273 4.87599 5.46986 4.92752C5.37364 4.982 5.28581 5.05012 5.20909 5.12974C5.10266 5.22997 5.04235 5.31689 4.9776 5.40115C4.64953 5.82769 4.4729 6.35136 4.47558 6.88946C4.47735 7.32407 4.59089 7.74715 4.76828 8.14273C5.13104 8.94277 5.72796 9.78981 6.51558 10.5748C6.70539 10.7637 6.89165 10.9535 7.0921 11.13C8.07076 11.9916 9.23699 12.613 10.498 12.9447L11.0018 13.0219C11.1659 13.0307 11.33 13.0183 11.495 13.0103C11.7533 12.997 12.0055 12.9271 12.2338 12.8055C12.3499 12.7456 12.4633 12.6805 12.5735 12.6103C12.5735 12.6103 12.6116 12.5855 12.6844 12.5305C12.8041 12.4418 12.8777 12.3788 12.9771 12.2751C13.0507 12.1988 13.1145 12.1092 13.1633 12.0072C13.2325 11.8626 13.3017 11.5868 13.3301 11.3571C13.3513 11.1814 13.3451 11.0857 13.3425 11.0262C13.3389 10.9313 13.26 10.8329 13.174 10.7912L12.6577 10.5597C12.6577 10.5597 11.8861 10.2235 11.4142 10.0089C11.3649 9.98733 11.312 9.975 11.2581 9.97252C11.1974 9.96629 11.1361 9.97312 11.0783 9.99255C11.0205 10.012 10.9675 10.0436 10.9229 10.0852C10.9184 10.0834 10.859 10.1339 10.2177 10.9109C10.1809 10.9604 10.1302 10.9978 10.0721 11.0183C10.014 11.0388 9.95104 11.0416 9.89133 11.0262C9.83355 11.0107 9.77694 10.9912 9.72192 10.9677C9.61194 10.9216 9.5738 10.9038 9.49841 10.8719C8.98936 10.6498 8.51805 10.3496 8.10146 9.98228C7.9897 9.88471 7.88593 9.77828 7.77949 9.67539C7.43055 9.34121 7.12645 8.96317 6.8748 8.55073L6.82247 8.46647C6.78488 8.40985 6.75449 8.34877 6.732 8.28465C6.69829 8.15426 6.7861 8.0496 6.7861 8.0496C6.7861 8.0496 7.00163 7.81367 7.10186 7.68595C7.19942 7.56178 7.28191 7.44115 7.33513 7.35512C7.43979 7.18659 7.47261 7.01364 7.41761 6.87971C7.16927 6.27303 6.91205 5.66901 6.64774 5.06943C6.59541 4.95058 6.44019 4.86543 6.29916 4.84858C6.25127 4.84326 6.20337 4.83793 6.15548 4.83439C6.03636 4.82847 5.917 4.82965 5.79803 4.83793L5.9772 4.83173Z" fill="white"/>
</svg>
